<svg width="96" height="96" viewBox="0 0 96 96" fill="none" xmlns="http://www.w3.org/2000/svg">
<rect width="96" height="96" fill="black"/>
<path d="M22.4 48L34.64 14.4H42.992L29.888 48H22.4ZM21.536 48L8.384 14.4H16.688L29.024 48H21.536ZM46.6078 48V14.4H58.3678C60.6718 14.4 62.7038 14.752 64.4638 15.456C66.2238 16.16 67.5998 17.232 68.5918 18.672C69.5838 20.112 70.0798 21.936 70.0798 24.144C70.0798 25.328 69.7598 26.448 69.1198 27.504C68.5118 28.528 67.6638 29.456 66.5758 30.288C68.1118 31.088 69.2798 32.144 70.0798 33.456C70.9118 34.736 71.3278 36.32 71.3278 38.208C71.3278 40.32 70.8478 42.112 69.8878 43.584C68.9278 45.024 67.5998 46.128 65.9038 46.896C64.2078 47.632 62.2238 48 59.9518 48H46.6078ZM54.1438 41.184H59.0878C60.3998 41.184 61.4398 40.848 62.2078 40.176C62.9758 39.472 63.3598 38.576 63.3598 37.488C63.3598 36.336 62.9598 35.44 62.1598 34.8C61.3598 34.128 60.2558 33.792 58.8478 33.792H54.1438V41.184ZM54.1438 27.6H58.1278C59.3438 27.6 60.3198 27.296 61.0558 26.688C61.7918 26.048 62.1598 25.168 62.1598 24.048C62.1598 22.896 61.7598 22.016 60.9598 21.408C60.1918 20.768 59.1518 20.448 57.8398 20.448H54.1438V27.6Z" fill="white"/>
<path d="M11.52 81.92H29.12H46.72" stroke="white" stroke-width="5.5"/>
</svg>
