<svg width="27" height="26" viewBox="0 0 27 26" fill="none" xmlns="http://www.w3.org/2000/svg">
<rect width="25" height="23.4043" fill="#D9D9D9"/>
<path d="M13.069 21.156C12.5923 21.156 12.1547 21.0997 11.756 20.987C11.366 20.8743 11.0193 20.7183 10.716 20.519C10.4213 20.3197 10.1743 20.0987 9.975 19.856C9.78433 19.6047 9.65 19.3447 9.572 19.076L11.054 18.621C11.1667 18.9417 11.3877 19.2233 11.717 19.466C12.0463 19.7087 12.4537 19.8343 12.939 19.843C13.5023 19.843 13.9487 19.726 14.278 19.492C14.6073 19.258 14.772 18.9503 14.772 18.569C14.772 18.2223 14.6333 17.9407 14.356 17.724C14.0787 17.4987 13.706 17.3253 13.238 17.204L12.12 16.918C11.6953 16.8053 11.3097 16.6407 10.963 16.424C10.625 16.2073 10.3563 15.9343 10.157 15.605C9.96633 15.2757 9.871 14.8857 9.871 14.435C9.871 13.5857 10.1483 12.927 10.703 12.459C11.2577 11.9823 12.0507 11.744 13.082 11.744C13.6627 11.744 14.1697 11.835 14.603 12.017C15.045 12.1903 15.409 12.433 15.695 12.745C15.981 13.0483 16.1933 13.395 16.332 13.785L14.876 14.253C14.746 13.9063 14.5207 13.6203 14.2 13.395C13.8793 13.1697 13.4807 13.057 13.004 13.057C12.51 13.057 12.12 13.174 11.834 13.408C11.5567 13.642 11.418 13.967 11.418 14.383C11.418 14.721 11.5263 14.9853 11.743 15.176C11.9683 15.358 12.2717 15.4967 12.653 15.592L13.771 15.865C14.5857 16.0643 15.2183 16.4067 15.669 16.892C16.1197 17.3773 16.345 17.9147 16.345 18.504C16.345 19.024 16.2193 19.4833 15.968 19.882C15.7167 20.2807 15.344 20.5927 14.85 20.818C14.3647 21.0433 13.771 21.156 13.069 21.156ZM17.6236 21V11.9H23.2786V13.278H19.1316V15.826H22.6806V17.204H19.1316V21H17.6236Z" fill="white"/>
</svg>
