<?xml version="1.0" encoding="UTF-8"?>
<svg id="Layer_1" xmlns="http://www.w3.org/2000/svg" xmlns:xlink="http://www.w3.org/1999/xlink" version="1.1" viewBox="0 0 1700.8 1700.8">
  <!-- Generator: Adobe Illustrator 29.0.1, SVG Export Plug-In . SVG Version: 2.1.0 Build 192)  -->
  <defs>
    <style>
      .st0 {
        fill: url(#linear-gradient2);
      }

      .st1 {
        fill: url(#linear-gradient1);
      }

      .st2 {
        fill: url(#linear-gradient9);
      }

      .st3 {
        fill: url(#linear-gradient3);
      }

      .st4 {
        fill: url(#linear-gradient6);
      }

      .st5 {
        fill: url(#linear-gradient8);
      }

      .st6 {
        fill: url(#linear-gradient7);
      }

      .st7 {
        fill: url(#linear-gradient5);
      }

      .st8 {
        fill: url(#linear-gradient4);
      }

      .st9 {
        fill: url(#linear-gradient12);
      }

      .st10 {
        fill: url(#linear-gradient11);
      }

      .st11 {
        fill: url(#linear-gradient10);
      }

      .st12 {
        fill: url(#linear-gradient);
      }
    </style>
    <linearGradient id="linear-gradient" x1="781.4" y1="882" x2="461.5" y2="253.9" gradientTransform="translate(0 1699.1) scale(1 -1)" gradientUnits="userSpaceOnUse">
      <stop offset=".2" stop-color="#ff318c"/>
      <stop offset=".7" stop-color="#b74af7" stop-opacity=".9"/>
      <stop offset="1" stop-color="#6b57ff" stop-opacity=".7"/>
    </linearGradient>
    <linearGradient id="linear-gradient1" x1="784.5" y1="855.7" x2="700.8" y2="259.2" gradientTransform="translate(0 1699.1) scale(1 -1)" gradientUnits="userSpaceOnUse">
      <stop offset=".2" stop-color="#ff318c"/>
      <stop offset=".7" stop-color="#b74af7" stop-opacity=".9"/>
      <stop offset="1" stop-color="#6b57ff" stop-opacity=".7"/>
    </linearGradient>
    <linearGradient id="linear-gradient2" x1="794.4" y1="835.4" x2="892.7" y2="330" gradientTransform="translate(0 1699.1) scale(1 -1)" gradientUnits="userSpaceOnUse">
      <stop offset=".2" stop-color="#ff318c"/>
      <stop offset=".7" stop-color="#b74af7" stop-opacity=".9"/>
      <stop offset="1" stop-color="#6b57ff" stop-opacity=".7"/>
    </linearGradient>
    <linearGradient id="linear-gradient3" x1="808" y1="821.7" x2="1028.1" y2="440.6" gradientTransform="translate(0 1699.1) scale(1 -1)" gradientUnits="userSpaceOnUse">
      <stop offset=".2" stop-color="#ff318c"/>
      <stop offset=".7" stop-color="#b74af7" stop-opacity=".9"/>
      <stop offset="1" stop-color="#6b57ff" stop-opacity=".7"/>
    </linearGradient>
    <linearGradient id="linear-gradient4" x1="836.9" y1="812.6" x2="1134.9" y2="692.2" gradientTransform="translate(0 1699.1) scale(1 -1)" gradientUnits="userSpaceOnUse">
      <stop offset=".2" stop-color="#ff318c"/>
      <stop offset=".7" stop-color="#b74af7" stop-opacity=".9"/>
      <stop offset="1" stop-color="#6b57ff" stop-opacity=".7"/>
    </linearGradient>
    <linearGradient id="linear-gradient5" x1="848.7" y1="815.1" x2="1123.1" y2="800.8" gradientTransform="translate(0 1699.1) scale(1 -1)" gradientUnits="userSpaceOnUse">
      <stop offset=".2" stop-color="#ff318c"/>
      <stop offset=".7" stop-color="#b74af7" stop-opacity=".9"/>
      <stop offset="1" stop-color="#6b57ff" stop-opacity=".7"/>
    </linearGradient>
    <linearGradient id="linear-gradient6" x1="857.5" y1="820.4" x2="1083.3" y2="885.2" gradientTransform="translate(0 1699.1) scale(1 -1)" gradientUnits="userSpaceOnUse">
      <stop offset=".2" stop-color="#ff318c"/>
      <stop offset=".7" stop-color="#b74af7" stop-opacity=".9"/>
      <stop offset="1" stop-color="#6b57ff" stop-opacity=".7"/>
    </linearGradient>
    <linearGradient id="linear-gradient7" x1="863.2" y1="827.1" x2="1027.6" y2="942.3" gradientTransform="translate(0 1699.1) scale(1 -1)" gradientUnits="userSpaceOnUse">
      <stop offset=".2" stop-color="#ff318c"/>
      <stop offset=".7" stop-color="#b74af7" stop-opacity=".9"/>
      <stop offset="1" stop-color="#6b57ff" stop-opacity=".7"/>
    </linearGradient>
    <linearGradient id="linear-gradient8" x1="865.9" y1="834.2" x2="966.8" y2="973" gradientTransform="translate(0 1699.1) scale(1 -1)" gradientUnits="userSpaceOnUse">
      <stop offset=".2" stop-color="#ff318c"/>
      <stop offset=".7" stop-color="#b74af7" stop-opacity=".9"/>
      <stop offset="1" stop-color="#6b57ff" stop-opacity=".7"/>
    </linearGradient>
    <linearGradient id="linear-gradient9" x1="866.2" y1="840.6" x2="909" y2="980.8" gradientTransform="translate(0 1699.1) scale(1 -1)" gradientUnits="userSpaceOnUse">
      <stop offset=".2" stop-color="#ff318c"/>
      <stop offset=".7" stop-color="#b74af7" stop-opacity=".9"/>
      <stop offset="1" stop-color="#6b57ff" stop-opacity=".7"/>
    </linearGradient>
    <linearGradient id="linear-gradient10" x1="864.6" y1="845.9" x2="860.2" y2="971.1" gradientTransform="translate(0 1699.1) scale(1 -1)" gradientUnits="userSpaceOnUse">
      <stop offset=".2" stop-color="#ff318c"/>
      <stop offset=".7" stop-color="#b74af7" stop-opacity=".9"/>
      <stop offset="1" stop-color="#6b57ff" stop-opacity=".7"/>
    </linearGradient>
    <linearGradient id="linear-gradient11" x1="861.8" y1="849.7" x2="823.4" y2="949.7" gradientTransform="translate(0 1699.1) scale(1 -1)" gradientUnits="userSpaceOnUse">
      <stop offset=".2" stop-color="#ff318c"/>
      <stop offset=".7" stop-color="#b74af7" stop-opacity=".9"/>
      <stop offset="1" stop-color="#6b57ff" stop-opacity=".7"/>
    </linearGradient>
    <linearGradient id="linear-gradient12" x1="858.5" y1="852" x2="799.7" y2="922.1" gradientTransform="translate(0 1699.1) scale(1 -1)" gradientUnits="userSpaceOnUse">
      <stop offset=".2" stop-color="#ff318c"/>
      <stop offset=".7" stop-color="#b74af7" stop-opacity=".9"/>
      <stop offset="1" stop-color="#6b57ff" stop-opacity=".7"/>
    </linearGradient>
  </defs>
  <path class="st12" d="M572.9,708.8l418.8,213.3c70.5,35.9,98.6,122.2,62.6,192.7l-213.3,418.8c-35.9,70.5-122.2,98.6-192.8,62.7l-418.8-213.3c-70.5-35.9-98.6-122.2-62.6-192.7l213.3-418.8c35.9-70.5,122.2-98.6,192.8-62.7Z"/>
  <path class="st1" d="M585.9,813.9l397.8,55.8c67,9.4,113.7,71.3,104.3,138.3l-55.9,397.8c-9.4,67-71.3,113.7-138.3,104.3l-397.8-55.8c-67-9.4-113.7-71.3-104.3-138.3l55.9-397.8c9.4-67,71.4-113.7,138.3-104.3Z"/>
  <path class="st0" d="M625.7,895.2l337-65.6c56.8-11,111.7,26,122.8,82.8l65.5,337c11,56.8-26,111.7-82.8,122.8l-337,65.6c-56.8,11-111.7-26-122.8-82.8l-65.5-337c-11-56.8,26-111.7,82.8-122.8Z"/>
  <path class="st3" d="M680.4,949.8l254.1-146.8c42.8-24.7,97.5-10.1,122.2,32.7l146.7,254.1c24.7,42.8,10.1,97.5-32.7,122.2l-254.1,146.8c-42.8,24.7-97.5,10.1-122.2-32.7l-146.7-254.1c-24.7-42.8-10.1-97.5,32.7-122.2Z"/>
  <path class="st8" d="M796,985.5l80.3-198.8c13.5-33.5,51.6-49.6,85.1-36.1l198.8,80.3c33.5,13.5,49.6,51.6,36.1,85.1l-80.3,198.8c-13.5,33.5-51.6,49.7-85.1,36.1l-198.8-80.3c-33.5-13.5-49.6-51.6-36.1-85.1Z"/>
  <path class="st7" d="M843.2,975.4l9.6-183c1.6-30.8,27.9-54.5,58.7-52.9l183,9.6c30.8,1.6,54.5,27.9,52.9,58.7l-9.6,183c-1.6,30.8-27.9,54.5-58.7,52.9l-183-9.6c-30.8-1.6-54.5-27.9-52.9-58.7Z"/>
  <path class="st4" d="M878.5,954.1l-43.2-150.5c-7.3-25.3,7.4-51.8,32.7-59.1l150.5-43.2c25.3-7.3,51.8,7.4,59.1,32.7l43.2,150.5c7.3,25.4-7.4,51.8-32.7,59.1l-150.5,43.2c-25.3,7.3-51.8-7.4-59.1-32.7Z"/>
  <path class="st6" d="M901.2,927l-76.8-109.6c-12.9-18.5-8.4-43.9,10-56.8l109.6-76.8c18.5-12.9,43.9-8.4,56.8,10l76.8,109.6c12.9,18.5,8.4,43.9-10,56.8l-109.6,76.8c-18.5,12.9-43.9,8.4-56.8-10Z"/>
  <path class="st5" d="M912,898.9l-92.6-67.2c-15.6-11.3-19-33.1-7.7-48.7l67.2-92.6c11.3-15.6,33.1-19,48.7-7.7l92.6,67.2c15.6,11.3,19,33.1,7.7,48.7l-67.2,92.6c-11.3,15.6-33.1,19-48.7,7.7Z"/>
  <path class="st2" d="M912.8,873.1l-93.5-28.6c-15.7-4.8-24.6-21.5-19.8-37.2l28.6-93.5c4.8-15.7,21.5-24.6,37.2-19.8l93.5,28.6c15.7,4.8,24.6,21.5,19.8,37.2l-28.6,93.5c-4.8,15.7-21.5,24.6-37.2,19.8Z"/>
  <path class="st11" d="M906.4,852.1l-83.5,2.9c-14.1.5-25.9-10.5-26.4-24.6l-2.9-83.5c-.5-14.1,10.5-25.9,24.6-26.4l83.5-2.9c14.1-.5,25.9,10.5,26.4,24.6l2.9,83.5c.5,14.1-10.5,25.9-24.6,26.4Z"/>
  <path class="st10" d="M895.3,836.9l-66.7,25.6c-11.2,4.3-23.8-1.3-28.1-12.5l-25.6-66.7c-4.3-11.2,1.3-23.8,12.5-28.1l66.7-25.6c11.2-4.3,23.8,1.3,28.1,12.5l25.6,66.7c4.3,11.2-1.3,23.8-12.5,28.1Z"/>
  <path class="st9" d="M882.1,827.6l-46.8,39.3c-7.9,6.6-19.6,5.6-26.2-2.3l-39.2-46.8c-6.6-7.9-5.6-19.6,2.3-26.2l46.8-39.3c7.9-6.6,19.6-5.6,26.2,2.3l39.2,46.8c6.6,7.9,5.6,19.6-2.3,26.2Z"/>
</svg>