<svg width="688" height="687" viewBox="0 0 688 687" fill="none" xmlns="http://www.w3.org/2000/svg">
<path d="M295.354 66.2272L570.439 206.335C616.767 229.931 635.19 286.618 611.589 332.948L471.449 608.042C447.847 654.372 391.158 672.801 344.829 649.204L69.7474 509.095C23.4191 485.499 4.99154 428.812 28.595 382.482L168.732 107.389C192.336 61.0565 249.026 42.6292 295.354 66.2272Z" fill="url(#paint0_linear_183_1235)"/>
<path d="M303.91 135.244L565.21 171.922C609.217 178.101 639.881 218.785 633.699 262.792L596.993 524.091C590.811 568.098 550.125 598.766 506.117 592.588L244.817 555.909C200.809 549.732 170.144 509.049 176.328 465.042L213.033 203.743C219.217 159.735 259.902 129.07 303.91 135.244Z" fill="url(#paint1_linear_183_1235)"/>
<path d="M330.027 188.64L551.411 145.572C588.694 138.319 624.795 162.658 632.045 199.943L675.092 421.318C682.342 458.6 657.995 494.703 620.712 501.956L399.328 545.026C362.044 552.279 325.944 527.936 318.694 490.654L275.646 269.278C268.397 231.996 292.744 195.893 330.027 188.64Z" fill="url(#paint2_linear_183_1235)"/>
<path d="M365.996 224.518L532.919 128.117C561.033 111.877 596.984 121.506 613.218 149.617L709.606 316.528C725.84 344.64 716.209 380.591 688.095 396.828L521.172 493.23C493.059 509.467 457.107 499.841 440.873 471.729L344.486 304.818C328.252 276.707 337.882 240.755 365.996 224.518Z" fill="url(#paint3_linear_183_1235)"/>
<path d="M441.89 247.986L494.631 117.418C503.513 95.4324 528.539 84.8052 550.528 93.6853L681.091 146.413C703.08 155.293 713.705 180.314 704.822 202.305L652.081 332.87C643.199 354.859 618.173 365.487 596.185 356.607L465.621 303.88C443.632 295 433.007 269.976 441.89 247.986Z" fill="url(#paint4_linear_183_1235)"/>
<path d="M472.911 241.357L479.203 121.163C480.262 100.928 497.529 85.3747 517.769 86.4329L637.963 92.7086C658.203 93.7668 673.753 111.031 672.693 131.272L666.402 251.465C665.342 271.705 648.075 287.256 627.835 286.199L507.642 279.92C487.401 278.863 471.852 261.598 472.911 241.357Z" fill="url(#paint5_linear_183_1235)"/>
<path d="M496.134 227.357L467.774 128.48C462.998 111.832 472.625 94.4611 489.278 89.6833L588.157 61.3106C604.809 56.5327 622.18 66.1569 626.956 82.8106L655.317 181.683C660.092 198.337 650.465 215.708 633.813 220.486L534.933 248.855C518.281 253.633 500.91 244.008 496.134 227.357Z" fill="url(#paint6_linear_183_1235)"/>
<path d="M511.015 209.591L460.579 137.579C452.086 125.453 455.032 108.735 467.16 100.239L539.18 49.7969C551.308 41.3014 568.024 44.2502 576.518 56.3757L626.954 128.386C635.446 140.517 632.5 157.23 620.372 165.726L548.353 216.168C536.225 224.662 519.508 221.717 511.015 209.591Z" fill="url(#paint7_linear_183_1235)"/>
<path d="M518.09 191.086L457.294 146.926C447.055 139.492 444.784 125.164 452.222 114.926L496.387 54.1216C503.825 43.8835 518.154 41.6139 528.393 49.0483L589.19 93.2087C599.429 100.643 601.699 114.971 594.261 125.214L550.096 186.013C542.658 196.251 528.329 198.523 518.09 191.086Z" fill="url(#paint8_linear_183_1235)"/>
<path d="M518.659 174.164L457.241 155.402C446.896 152.238 441.073 141.293 444.235 130.947L463.008 69.5286C466.17 59.1834 477.119 53.3601 487.465 56.5187L548.882 75.2859C559.227 78.4445 565.05 89.3956 561.888 99.7408L543.115 161.16C539.953 171.505 529.004 177.328 518.659 174.164Z" fill="url(#paint9_linear_183_1235)"/>
<path d="M514.417 160.339L459.55 162.266C450.312 162.587 442.561 155.361 442.238 146.124L440.319 91.2594C439.996 82.0218 447.223 74.2719 456.461 73.9502L511.328 72.0233C520.566 71.6964 528.317 78.9225 528.64 88.1653L530.559 143.024C530.882 152.262 523.656 160.012 514.417 160.339Z" fill="url(#paint10_linear_183_1235)"/>
<path d="M507.133 150.346L463.33 167.168C455.954 169.997 447.679 166.314 444.847 158.94L428.029 115.14C425.197 107.766 428.88 99.4882 436.257 96.6542L480.06 79.8319C487.435 77.0031 495.711 80.6867 498.543 88.0605L515.361 131.86C518.193 139.234 514.509 147.512 507.133 150.346Z" fill="url(#paint11_linear_183_1235)"/>
<path d="M498.468 144.29L467.749 170.075C462.576 174.417 454.864 173.743 450.523 168.569L424.743 137.855C420.402 132.681 421.076 124.967 426.249 120.63L456.968 94.846C462.141 90.504 469.853 91.1774 474.194 96.3513L499.974 127.065C504.315 132.239 503.641 139.948 498.468 144.29Z" fill="url(#paint12_linear_183_1235)"/>
<defs>
<linearGradient id="paint0_linear_183_1235" x1="424.99" y1="133.608" x2="214.859" y2="546.17" gradientUnits="userSpaceOnUse">
<stop offset="0.151" stop-color="#FF318C"/>
<stop offset="0.67" stop-color="#B74AF7" stop-opacity="0.9"/>
<stop offset="1" stop-color="#6B57FF" stop-opacity="0.7"/>
</linearGradient>
<linearGradient id="paint1_linear_183_1235" x1="427.427" y1="153.628" x2="372.421" y2="545.493" gradientUnits="userSpaceOnUse">
<stop offset="0.151" stop-color="#FF318C"/>
<stop offset="0.67" stop-color="#B74AF7" stop-opacity="0.9"/>
<stop offset="1" stop-color="#6B57FF" stop-opacity="0.7"/>
</linearGradient>
<linearGradient id="paint2_linear_183_1235" x1="434.966" y1="169.121" x2="499.551" y2="501.102" gradientUnits="userSpaceOnUse">
<stop offset="0.151" stop-color="#FF318C"/>
<stop offset="0.67" stop-color="#B74AF7" stop-opacity="0.9"/>
<stop offset="1" stop-color="#6B57FF" stop-opacity="0.7"/>
</linearGradient>
<linearGradient id="paint3_linear_183_1235" x1="445.37" y1="179.547" x2="589.93" y2="429.857" gradientUnits="userSpaceOnUse">
<stop offset="0.151" stop-color="#FF318C"/>
<stop offset="0.67" stop-color="#B74AF7" stop-opacity="0.9"/>
<stop offset="1" stop-color="#6B57FF" stop-opacity="0.7"/>
</linearGradient>
<linearGradient id="paint4_linear_183_1235" x1="467.361" y1="186.401" x2="663.153" y2="265.491" gradientUnits="userSpaceOnUse">
<stop offset="0.151" stop-color="#FF318C"/>
<stop offset="0.67" stop-color="#B74AF7" stop-opacity="0.9"/>
<stop offset="1" stop-color="#6B57FF" stop-opacity="0.7"/>
</linearGradient>
<linearGradient id="paint5_linear_183_1235" x1="476.359" y1="184.501" x2="656.6" y2="193.934" gradientUnits="userSpaceOnUse">
<stop offset="0.151" stop-color="#FF318C"/>
<stop offset="0.67" stop-color="#B74AF7" stop-opacity="0.9"/>
<stop offset="1" stop-color="#6B57FF" stop-opacity="0.7"/>
</linearGradient>
<linearGradient id="paint6_linear_183_1235" x1="483.099" y1="180.455" x2="631.386" y2="137.922" gradientUnits="userSpaceOnUse">
<stop offset="0.151" stop-color="#FF318C"/>
<stop offset="0.67" stop-color="#B74AF7" stop-opacity="0.9"/>
<stop offset="1" stop-color="#6B57FF" stop-opacity="0.7"/>
</linearGradient>
<linearGradient id="paint7_linear_183_1235" x1="487.428" y1="175.311" x2="595.429" y2="99.6737" gradientUnits="userSpaceOnUse">
<stop offset="0.151" stop-color="#FF318C"/>
<stop offset="0.67" stop-color="#B74AF7" stop-opacity="0.9"/>
<stop offset="1" stop-color="#6B57FF" stop-opacity="0.7"/>
</linearGradient>
<linearGradient id="paint8_linear_183_1235" x1="489.491" y1="169.951" x2="555.718" y2="78.7689" gradientUnits="userSpaceOnUse">
<stop offset="0.151" stop-color="#FF318C"/>
<stop offset="0.67" stop-color="#B74AF7" stop-opacity="0.9"/>
<stop offset="1" stop-color="#6B57FF" stop-opacity="0.7"/>
</linearGradient>
<linearGradient id="paint9_linear_183_1235" x1="489.666" y1="165.048" x2="517.812" y2="72.9317" gradientUnits="userSpaceOnUse">
<stop offset="0.151" stop-color="#FF318C"/>
<stop offset="0.67" stop-color="#B74AF7" stop-opacity="0.9"/>
<stop offset="1" stop-color="#6B57FF" stop-opacity="0.7"/>
</linearGradient>
<linearGradient id="paint10_linear_183_1235" x1="488.444" y1="161.035" x2="485.557" y2="78.7642" gradientUnits="userSpaceOnUse">
<stop offset="0.151" stop-color="#FF318C"/>
<stop offset="0.67" stop-color="#B74AF7" stop-opacity="0.9"/>
<stop offset="1" stop-color="#6B57FF" stop-opacity="0.7"/>
</linearGradient>
<linearGradient id="paint11_linear_183_1235" x1="486.337" y1="158.132" x2="461.113" y2="92.4559" gradientUnits="userSpaceOnUse">
<stop offset="0.151" stop-color="#FF318C"/>
<stop offset="0.67" stop-color="#B74AF7" stop-opacity="0.9"/>
<stop offset="1" stop-color="#6B57FF" stop-opacity="0.7"/>
</linearGradient>
<linearGradient id="paint12_linear_183_1235" x1="483.829" y1="156.375" x2="445.171" y2="110.31" gradientUnits="userSpaceOnUse">
<stop offset="0.151" stop-color="#FF318C"/>
<stop offset="0.67" stop-color="#B74AF7" stop-opacity="0.9"/>
<stop offset="1" stop-color="#6B57FF" stop-opacity="0.7"/>
</linearGradient>
</defs>
</svg>
