<svg width="390" height="455" viewBox="0 0 390 455" fill="none" xmlns="http://www.w3.org/2000/svg">
<rect opacity="0.9" y="1" width="415" height="454" fill="#8351FB"/>
<g opacity="0.9" filter="url(#filter0_d_52_39)">
<path d="M0 54.9788C152.699 113.777 216.722 36.9858 229.314 1H77.1474C46.9269 7.94013 13.1239 3.89172 0 1V54.9788Z" fill="url(#paint0_linear_52_39)"/>
</g>
<path opacity="0.9" d="M0 1C15.0748 5.01628 51.2897 10.6391 75.5513 1H0Z" fill="#E336A1"/>
<g opacity="0.9" filter="url(#filter1_d_52_39)">
<path d="M100.026 71.3652C89.3846 71.3652 29.4402 59.6377 0.532051 55.4607L0 201.493L221.333 105.102C311.995 80.8115 346.011 25.5796 351.686 1H221.333C201.754 59.9911 132.303 72.4897 100.026 71.3652Z" fill="url(#paint1_linear_52_39)"/>
</g>
<path opacity="0.9" d="M413.936 1H353.282C333.703 49.9665 284.825 74.5782 266.558 81.4862L0 200.047V259.809L221.333 357.163L326.68 193.299L413.936 63.6539V1Z" fill="url(#paint2_linear_52_39)"/>
<defs>
<filter id="filter0_d_52_39" x="-0.0999999" y="0.9" width="237.514" height="83.6448" filterUnits="userSpaceOnUse" color-interpolation-filters="sRGB">
<feFlood flood-opacity="0" result="BackgroundImageFix"/>
<feColorMatrix in="SourceAlpha" type="matrix" values="0 0 0 0 0 0 0 0 0 0 0 0 0 0 0 0 0 0 127 0" result="hardAlpha"/>
<feOffset dx="4" dy="4"/>
<feGaussianBlur stdDeviation="2.05"/>
<feComposite in2="hardAlpha" operator="out"/>
<feColorMatrix type="matrix" values="0 0 0 0 0 0 0 0 0 0 0 0 0 0 0 0 0 0 0.25 0"/>
<feBlend mode="normal" in2="BackgroundImageFix" result="effect1_dropShadow_52_39"/>
<feBlend mode="normal" in="SourceGraphic" in2="effect1_dropShadow_52_39" result="shape"/>
</filter>
<filter id="filter1_d_52_39" x="-4" y="1" width="359.686" height="208.493" filterUnits="userSpaceOnUse" color-interpolation-filters="sRGB">
<feFlood flood-opacity="0" result="BackgroundImageFix"/>
<feColorMatrix in="SourceAlpha" type="matrix" values="0 0 0 0 0 0 0 0 0 0 0 0 0 0 0 0 0 0 127 0" result="hardAlpha"/>
<feOffset dy="4"/>
<feGaussianBlur stdDeviation="2"/>
<feComposite in2="hardAlpha" operator="out"/>
<feColorMatrix type="matrix" values="0 0 0 0 0 0 0 0 0 0 0 0 0 0 0 0 0 0 0.25 0"/>
<feBlend mode="normal" in2="BackgroundImageFix" result="effect1_dropShadow_52_39"/>
<feBlend mode="normal" in="SourceGraphic" in2="effect1_dropShadow_52_39" result="shape"/>
</filter>
<linearGradient id="paint0_linear_52_39" x1="0" y1="35.4157" x2="229.314" y2="35.4157" gradientUnits="userSpaceOnUse">
<stop stop-color="#CD3EC2"/>
<stop offset="1" stop-color="#E336A1"/>
</linearGradient>
<linearGradient id="paint1_linear_52_39" x1="37.2436" y1="114.259" x2="289.301" y2="12.3457" gradientUnits="userSpaceOnUse">
<stop stop-color="#B247E9"/>
<stop offset="1" stop-color="#E236A3"/>
</linearGradient>
<linearGradient id="paint2_linear_52_39" x1="206.968" y1="1" x2="206.968" y2="357.163" gradientUnits="userSpaceOnUse">
<stop stop-color="#CD3DC1"/>
<stop offset="1" stop-color="#6A1F61" stop-opacity="0.01"/>
</linearGradient>
</defs>
</svg>
